<svg id="Capa_1" enable-background="new 0 0 512 512" height="512" viewBox="0 0 512 512" width="512" xmlns="http://www.w3.org/2000/svg"><g id="XMLID_1849_"><path id="XMLID_2405_" d="m329.078 48c-74.396 0-134.923 60.525-134.923 134.922s60.526 134.923 134.923 134.923 134.922-60.527 134.922-134.923-60.525-134.922-134.922-134.922zm0 249.845c-63.369 0-114.923-51.554-114.923-114.923 0-63.368 51.554-114.922 114.923-114.922 63.368 0 114.922 51.554 114.922 114.922 0 63.369-51.554 114.923-114.922 114.923z"/><path id="XMLID_2416_" d="m329.078 0c-100.864 0-182.923 82.059-182.923 182.922 0 36.143 10.539 69.869 28.702 98.272l-28.885 28.886-4.021-4.021c-3.905-3.904-10.237-3.904-14.143 0l-111.626 111.627c-10.435 10.435-16.182 24.309-16.182 39.066 0 14.758 5.747 28.632 16.182 39.066 10.435 10.435 24.309 16.182 39.066 16.182s28.631-5.747 39.066-16.182l111.627-111.627c3.905-3.905 3.905-10.237 0-14.143l-4.022-4.022 28.885-28.885c28.403 18.163 62.13 28.702 98.273 28.702 100.864.002 182.923-82.057 182.923-182.921 0-100.863-82.059-182.922-182.922-182.922zm-248.906 481.676c-6.657 6.658-15.509 10.324-24.924 10.324s-18.267-3.666-24.924-10.324c-6.657-6.657-10.324-15.509-10.324-24.924s3.667-18.267 10.324-24.924l104.556-104.556 49.848 49.848zm107.605-129.791-27.662-27.662 26.591-26.591c8.213 10.173 17.49 19.45 27.663 27.663zm141.301-6.04c-89.836 0-162.923-73.087-162.923-162.923 0-89.835 73.087-162.922 162.923-162.922 89.835 0 162.922 73.087 162.922 162.922 0 89.836-73.087 162.923-162.922 162.923z"/><path id="XMLID_2425_" d="m395.973 131.454c-18.473-18.473-48.423-18.473-66.896 0-18.473-18.473-48.423-18.473-66.895 0-18.473 18.473-18.473 48.423 0 66.896l66.896 66.896 66.896-66.896c18.472-18.473 18.472-48.423-.001-66.896z"/></g></svg>